<svg width="24" height="24" viewBox="0 0 24 24" fill="none" xmlns="http://www.w3.org/2000/svg">
<path d="M13.2 12C13.8365 12 14.447 12.2529 14.897 12.7029C15.3471 13.153 15.6 13.7635 15.6 14.4V16.2C15.6 18.6648 13.0944 20.4 8.99999 20.4C4.90559 20.4 2.39999 18.6648 2.39999 16.2V14.4C2.39999 13.7635 2.65285 13.153 3.10294 12.7029C3.55302 12.2529 4.16347 12 4.79999 12H13.2ZM13.2 13.2H4.79999C4.48173 13.2 4.17651 13.3264 3.95147 13.5515C3.72642 13.7765 3.59999 14.0817 3.59999 14.4V16.2C3.59999 17.8884 5.49479 19.2 8.99999 19.2C12.5052 19.2 14.4 17.8884 14.4 16.2V14.4C14.4 14.0817 14.2736 13.7765 14.0485 13.5515C13.8235 13.3264 13.5183 13.2 13.2 13.2ZM19.2 12C19.8365 12 20.447 12.2529 20.897 12.7029C21.3471 13.153 21.6 13.7635 21.6 14.4V15C21.6 17.5068 19.7184 19.2 16.2 19.2C16.0308 19.2 15.864 19.1964 15.7032 19.188C15.9497 18.9025 16.16 18.5877 16.3296 18.2508L16.446 17.9952H16.4928C19.1712 17.9172 20.4 16.752 20.4 15V14.4C20.4 14.0817 20.2736 13.7765 20.0485 13.5515C19.8235 13.3264 19.5183 13.2 19.2 13.2H16.5948C16.4378 12.7573 16.1956 12.3497 15.882 12H19.2ZM8.99999 2.39999C9.55155 2.39999 10.0977 2.50863 10.6073 2.7197C11.1168 2.93077 11.5798 3.24014 11.9698 3.63015C12.3598 4.02015 12.6692 4.48316 12.8803 4.99272C13.0914 5.50229 13.2 6.04844 13.2 6.59999C13.2 7.15155 13.0914 7.6977 12.8803 8.20727C12.6692 8.71683 12.3598 9.17984 11.9698 9.56984C11.5798 9.95985 11.1168 10.2692 10.6073 10.4803C10.0977 10.6914 9.55155 10.8 8.99999 10.8C7.88608 10.8 6.8178 10.3575 6.03015 9.56984C5.24249 8.78219 4.79999 7.7139 4.79999 6.59999C4.79999 5.48609 5.24249 4.4178 6.03015 3.63015C6.8178 2.84249 7.88608 2.39999 8.99999 2.39999ZM17.4 4.79999C18.1956 4.79999 18.9587 5.11606 19.5213 5.67867C20.0839 6.24128 20.4 7.00434 20.4 7.79999C20.4 8.59564 20.0839 9.35871 19.5213 9.92132C18.9587 10.4839 18.1956 10.8 17.4 10.8C16.6043 10.8 15.8413 10.4839 15.2787 9.92132C14.7161 9.35871 14.4 8.59564 14.4 7.79999C14.4 7.00434 14.7161 6.24128 15.2787 5.67867C15.8413 5.11606 16.6043 4.79999 17.4 4.79999ZM8.99999 3.59999C8.20434 3.59999 7.44128 3.91606 6.87867 4.47867C6.31606 5.04128 5.99999 5.80434 5.99999 6.59999C5.99999 7.39564 6.31606 8.15871 6.87867 8.72131C7.44128 9.28392 8.20434 9.59999 8.99999 9.59999C9.79564 9.59999 10.5587 9.28392 11.1213 8.72131C11.6839 8.15871 12 7.39564 12 6.59999C12 5.80434 11.6839 5.04128 11.1213 4.47867C10.5587 3.91606 9.79564 3.59999 8.99999 3.59999ZM17.4 5.99999C16.9226 5.99999 16.4648 6.18964 16.1272 6.5272C15.7896 6.86477 15.6 7.32261 15.6 7.79999C15.6 8.27738 15.7896 8.73522 16.1272 9.07279C16.4648 9.41035 16.9226 9.59999 17.4 9.59999C17.8774 9.59999 18.3352 9.41035 18.6728 9.07279C19.0104 8.73522 19.2 8.27738 19.2 7.79999C19.2 7.32261 19.0104 6.86477 18.6728 6.5272C18.3352 6.18964 17.8774 5.99999 17.4 5.99999Z" fill="#1D2527"/>
</svg>
