<svg width="40" height="40" viewBox="0 0 40 40" fill="none" xmlns="http://www.w3.org/2000/svg">
<path fill-rule="evenodd" clip-rule="evenodd" d="M11.615 35.885C11.4986 35.7689 11.4063 35.6309 11.3432 35.4791C11.2802 35.3272 11.2478 35.1644 11.2478 35C11.2478 34.8356 11.2802 34.6728 11.3432 34.5209C11.4063 34.3691 11.4986 34.2311 11.615 34.115L25.7325 20L11.615 5.885C11.3803 5.65029 11.2484 5.33194 11.2484 5C11.2484 4.66806 11.3803 4.34972 11.615 4.115C11.8497 3.88029 12.1681 3.74842 12.5 3.74842C12.832 3.74842 13.1503 3.88029 13.385 4.115L28.385 19.115C28.5014 19.2311 28.5938 19.3691 28.6568 19.5209C28.7198 19.6728 28.7523 19.8356 28.7523 20C28.7523 20.1644 28.7198 20.3272 28.6568 20.4791C28.5938 20.6309 28.5014 20.7689 28.385 20.885L13.385 35.885C13.2689 36.0014 13.131 36.0938 12.9791 36.1568C12.8272 36.2198 12.6644 36.2522 12.5 36.2522C12.3356 36.2522 12.1728 36.2198 12.0209 36.1568C11.8691 36.0938 11.7311 36.0014 11.615 35.885V35.885Z" fill="#D2D4D9"/>
</svg>
