<svg width="24" height="24" viewBox="0 0 24 24" fill="none" xmlns="http://www.w3.org/2000/svg">
<path d="M6.49919 5.652C7.86905 4.46093 9.58922 3.74784 11.4 3.6204V5.4C11.4 5.55913 11.4632 5.71174 11.5757 5.82427C11.6883 5.93679 11.8409 6 12 6C12.1591 6 12.3117 5.93679 12.4243 5.82427C12.5368 5.71174 12.6 5.55913 12.6 5.4V3.6216C14.512 3.75868 16.3196 4.5453 17.7231 5.85097C19.1265 7.15664 20.0414 8.90288 20.316 10.8H18C17.8409 10.8 17.6883 10.8632 17.5757 10.9757C17.4632 11.0883 17.4 11.2409 17.4 11.4C17.4 11.5591 17.4632 11.7117 17.5757 11.8243C17.6883 11.9368 17.8409 12 18 12H20.4C20.3985 13.1595 20.1628 14.3068 19.7068 15.3729C19.2509 16.439 18.5842 17.402 17.7468 18.204C17.6365 18.3144 17.5736 18.4634 17.5714 18.6195C17.5691 18.7755 17.6278 18.9263 17.7349 19.0398C17.842 19.1533 17.9891 19.2206 18.145 19.2274C18.3009 19.2343 18.4534 19.1801 18.57 19.0764C19.5264 18.1623 20.2878 17.0642 20.8086 15.848C21.3293 14.6319 21.5985 13.3229 21.6 12C21.6 9.45392 20.5886 7.01213 18.7882 5.21178C16.9879 3.41143 14.5461 2.4 12 2.4C9.45392 2.4 7.01212 3.41143 5.21177 5.21178C3.41142 7.01213 2.39999 9.45392 2.39999 12C2.39999 14.754 3.62399 17.328 5.47559 19.0764C5.53296 19.1305 5.6004 19.1727 5.67408 19.2007C5.74776 19.2287 5.82623 19.2418 5.90501 19.2395C5.98379 19.2372 6.06134 19.2193 6.13323 19.187C6.20512 19.1547 6.26994 19.1086 6.32399 19.0512C6.37805 18.9938 6.42027 18.9264 6.44826 18.8527C6.47624 18.779 6.48944 18.7006 6.4871 18.6218C6.48476 18.543 6.46693 18.4655 6.43462 18.3936C6.40231 18.3217 6.35616 18.2569 6.29879 18.2028C4.67399 16.668 3.59999 14.4036 3.59999 12H5.99999C6.15912 12 6.31174 11.9368 6.42426 11.8243C6.53678 11.7117 6.59999 11.5591 6.59999 11.4C6.59999 11.2409 6.53678 11.0883 6.42426 10.9757C6.31174 10.8632 6.15912 10.8 5.99999 10.8H3.68399C3.91291 9.20738 4.5962 7.71455 5.65199 6.5004L7.37519 8.2248C7.48786 8.33747 7.64066 8.40076 7.79999 8.40076C7.95932 8.40076 8.11213 8.33747 8.22479 8.2248C8.33746 8.11214 8.40075 7.95933 8.40075 7.8C8.40075 7.64067 8.33746 7.48786 8.22479 7.3752L6.49919 5.652ZM16.1388 6.9684C16.2478 6.8818 16.3836 6.83582 16.5228 6.83834C16.6621 6.84087 16.7961 6.89175 16.9019 6.98226C17.0078 7.07277 17.0788 7.19727 17.1029 7.33442C17.127 7.47158 17.1026 7.61284 17.034 7.734L16.902 7.9692C16.4194 8.82133 15.9338 9.67173 15.4452 10.5204C15.0546 11.1995 14.6585 11.8755 14.2572 12.5484C14.1068 12.8015 13.9532 13.0528 13.7964 13.302C13.6764 13.4904 13.5588 13.6692 13.4724 13.77C13.1624 14.1331 12.7209 14.3583 12.2449 14.3958C11.7689 14.4334 11.2975 14.2804 10.9344 13.9704C10.5713 13.6604 10.3461 13.2189 10.3086 12.7429C10.271 12.2669 10.424 11.7955 10.734 11.4324C10.8204 11.3316 10.9776 11.1864 11.1456 11.0388C11.3256 10.8792 11.5572 10.6836 11.8176 10.464C12.3408 10.0272 12.996 9.492 13.6344 8.976C14.3958 8.36004 15.1599 7.74723 15.9264 7.1376L16.1388 6.9696V6.9684Z" fill="#1D2527"/>
</svg>
